<?xml version="1.0" encoding="UTF-8" standalone="no"?>
<svg
   xmlns:dc="http://purl.org/dc/elements/1.1/"
   xmlns:cc="http://creativecommons.org/ns#"
   xmlns:rdf="http://www.w3.org/1999/02/22-rdf-syntax-ns#"
   xmlns:svg="http://www.w3.org/2000/svg"
   xmlns="http://www.w3.org/2000/svg"
   xmlns:sodipodi="http://sodipodi.sourceforge.net/DTD/sodipodi-0.dtd"
   xmlns:inkscape="http://www.inkscape.org/namespaces/inkscape"
   version="1.1"
   id="svg2"
   xml:space="preserve"
   width="180"
   height="180"
   viewBox="0 0 360 360"
   sodipodi:docname="alex-hyman-logo-original.eps"><metadata
     id="metadata8"><rdf:RDF><cc:Work
         rdf:about=""><dc:format>image/svg+xml</dc:format><dc:type
           rdf:resource="http://purl.org/dc/dcmitype/StillImage" /></cc:Work></rdf:RDF></metadata><defs
     id="defs6" /><sodipodi:namedview
     pagecolor="#ffffff"
     bordercolor="#666666"
     borderopacity="1"
     objecttolerance="10"
     gridtolerance="10"
     guidetolerance="10"
     inkscape:pageopacity="0"
     inkscape:pageshadow="2"
     inkscape:window-width="640"
     inkscape:window-height="480"
     id="namedview4" /><g
     id="g10"
     inkscape:groupmode="layer"
     inkscape:label="ink_ext_XXXXXX"
     transform="matrix(1.3333333,0,0,-1.3333333,0,6400)"><g
       id="g12"
       transform="scale(0.1) "><path
         d="M 48000,0 H 0 V 48000 H 48000 V 0"
         style="fill:#000000;fill-opacity:1;fill-rule:nonzero;stroke:none"
         id="path14" /><path
         d="M 24009,35664.9 36623.3,12330.2 h -2623.5 l -4721.9,8732.8 -1097.6,2031.4 -5484.8,10144.3 1313.5,2426.2"
         style="fill:#ffffff;fill-opacity:1;fill-rule:nonzero;stroke:none"
         id="path16" /><path
         d="m 16012.6,16039.8 4718.4,8718.9 2464.2,-4554.5 z m 13136.1,7616.7 -968.4,-562.1 -2987.1,-1731.3 -4462.2,8245.6 -9351.4,-17278.5 h 2835.9 l 8695.8,5041.6 1382.7,802.2 1998,1157.7 758.3,439.7 2227.6,1291.6 1028.4,596.7 z m -1983,-5940.7 -1996.8,-1157.7 2287.7,-4227.9 h 2624.7 l -2915.6,5385.6"
         style="fill:#ffffff;fill-opacity:1;fill-rule:nonzero;stroke:none"
         id="path18" /></g></g></svg>
